<?xml version="1.0" encoding="UTF-8" standalone="no"?>
<!DOCTYPE svg PUBLIC "-//W3C//DTD SVG 1.1//EN"
 "http://www.w3.org/Graphics/SVG/1.1/DTD/svg11.dtd">
<!-- Generated by graphviz version 2.46.0 (20210118.1747)
 -->
<!-- Pages: 1 -->
<svg width="2151pt" height="640pt"
 viewBox="0.00 0.00 2151.40 639.90" xmlns="http://www.w3.org/2000/svg" xmlns:xlink="http://www.w3.org/1999/xlink">
<g id="graph0" class="graph" transform="scale(1 1) rotate(0) translate(4 635.9)">
<polygon fill="white" stroke="transparent" points="-4,4 -4,-635.9 2147.4,-635.9 2147.4,4 -4,4"/>
<text text-anchor="middle" x="1071.7" y="-7.8" font-family="Times New Roman,serif" font-size="14.00">North&#45;South Train Problem Finite State Machine</text>
<!-- Start -->
<g id="node1" class="node">
<title>Start</title>
<ellipse fill="black" stroke="black" cx="431.5" cy="-366.9" rx="1.8" ry="1.8"/>
</g>
<!-- Default State -->
<g id="node2" class="node">
<title>Default State</title>
<ellipse fill="none" stroke="black" cx="647.5" cy="-366.9" rx="57.39" ry="57.39"/>
<text text-anchor="middle" x="647.5" y="-363.2" font-family="Times New Roman,serif" font-size="14.00">Default State</text>
</g>
<!-- Start&#45;&gt;Default State -->
<g id="edge1" class="edge">
<title>Start&#45;&gt;Default State</title>
<path fill="none" stroke="#000000" d="M433.43,-367.24C486.33,-376.8 496.87,-378.45 580.29,-372.2"/>
<polygon fill="#000000" stroke="#000000" points="580.56,-375.69 590.26,-371.44 580.03,-368.71 580.56,-375.69"/>
<text text-anchor="start" x="454.98" y="-394.7" font-family="Times New Roman,serif" font-size="14.00" fill="#000000">timer := 0</text>
<text text-anchor="middle" x="482.98" y="-379.7" font-family="Times New Roman,serif" font-size="14.00" fill="#000000">trains := 0</text>
</g>
<!-- Alarm State -->
<g id="node3" class="node">
<title>Alarm State</title>
<ellipse fill="none" stroke="black" cx="1079.5" cy="-366.9" rx="53.09" ry="53.09"/>
<text text-anchor="middle" x="1079.5" y="-363.2" font-family="Times New Roman,serif" font-size="14.00">Alarm State</text>
</g>
<!-- Default State&#45;&gt;Alarm State -->
<g id="edge2" class="edge">
<title>Default State&#45;&gt;Alarm State</title>
<path fill="none" stroke="#000000" d="M704.68,-370.27C899.64,-381.7 944.12,-383.28 1016.64,-375"/>
<polygon fill="#000000" stroke="#000000" points="1017.07,-378.48 1026.6,-373.83 1016.25,-371.53 1017.07,-378.48"/>
<text text-anchor="middle" x="1146.08" y="-383.83" font-family="Times New Roman,serif" font-size="14.00" fill="#000000">(northbound_approach) ∨ (southbound_approach) / (Alarm ✓)timer := 0trains := 1</text>
</g>
<!-- Alarm State&#45;&gt;Alarm State -->
<g id="edge3" class="edge">
<title>Alarm State&#45;&gt;Alarm State</title>
<path fill="none" stroke="#ff0000" d="M1132.98,-370.12C1143.4,-369.75 1150.8,-368.67 1150.8,-366.9 1150.8,-365.79 1147.91,-364.95 1143.19,-364.39"/>
<polygon fill="#ff0000" stroke="#ff0000" points="1143.2,-360.88 1132.98,-363.67 1142.71,-367.86 1143.2,-360.88"/>
<text text-anchor="middle" x="1271.3" y="-363.2" font-family="Times New Roman,serif" font-size="14.00" fill="#ff0000">timer++(Time&#45;Triggered Interruption)	</text>
</g>
<!-- Alarm State&#45;&gt;Alarm State -->
<g id="edge4" class="edge">
<title>Alarm State&#45;&gt;Alarm State</title>
<path fill="none" stroke="#0000ff" d="M1132.77,-371.64C1223.21,-375.43 1391.8,-373.85 1391.8,-366.9 1391.8,-360.19 1235.17,-358.48 1142.87,-361.76"/>
<polygon fill="#0000ff" stroke="#0000ff" points="1142.63,-358.27 1132.77,-362.15 1142.9,-365.26 1142.63,-358.27"/>
<text text-anchor="middle" x="1662.3" y="-363.2" font-family="Times New Roman,serif" font-size="14.00" fill="#0000ff">(northbound_approach) ∨ (southbound_approach) / trains++(Event&#45;Triggered Interruption)	</text>
</g>
<!-- Barrier State -->
<g id="node4" class="node">
<title>Barrier State</title>
<ellipse fill="none" stroke="black" cx="1295.5" cy="-78.9" rx="55.79" ry="55.79"/>
<text text-anchor="middle" x="1295.5" y="-75.2" font-family="Times New Roman,serif" font-size="14.00">Barrier State</text>
</g>
<!-- Alarm State&#45;&gt;Barrier State -->
<g id="edge5" class="edge">
<title>Alarm State&#45;&gt;Barrier State</title>
<path fill="none" stroke="#000000" d="M1117,-328.99C1220.3,-224.39 1246.84,-194.61 1271.02,-140.45"/>
<polygon fill="#000000" stroke="#000000" points="1274.28,-141.73 1275.05,-131.16 1267.86,-138.94 1274.28,-141.73"/>
<text text-anchor="middle" x="1151.18" y="-219.6" font-family="Times New Roman,serif" font-size="14.00" fill="#000000">(timer ≥ 10) / (Barrier ✓)</text>
</g>
<!-- Barrier State&#45;&gt;Barrier State -->
<g id="edge6" class="edge">
<title>Barrier State&#45;&gt;Barrier State</title>
<path fill="none" stroke="#ff0000" d="M1351.57,-80.5C1362.03,-80.3 1369.4,-79.77 1369.4,-78.9 1369.4,-78.35 1366.52,-77.94 1361.8,-77.66"/>
<polygon fill="#ff0000" stroke="#ff0000" points="1361.68,-74.15 1351.57,-77.29 1361.44,-81.15 1361.68,-74.15"/>
<text text-anchor="middle" x="1434.4" y="-75.2" font-family="Times New Roman,serif" font-size="14.00" fill="#ff0000">(N_D) / &#45;		trains&#45;&#45;</text>
</g>
<!-- Barrier State&#45;&gt;Barrier State -->
<g id="edge7" class="edge">
<title>Barrier State&#45;&gt;Barrier State</title>
<path fill="none" stroke="#0000ff" d="M1351.43,-82.29C1522.6,-87.7 2013.4,-86.57 2013.4,-78.9 2013.4,-71.37 1541.11,-70.14 1361.56,-75.2"/>
<polygon fill="#0000ff" stroke="#0000ff" points="1361.33,-71.7 1351.43,-75.5 1361.53,-78.7 1361.33,-71.7"/>
<text text-anchor="middle" x="2078.4" y="-75.2" font-family="Times New Roman,serif" font-size="14.00" fill="#0000ff">(S_D) / &#45;		trains&#45;&#45;</text>
</g>
<!-- Barrier State&#45;&gt;Barrier State -->
<g id="edge8" class="edge">
<title>Barrier State&#45;&gt;Barrier State</title>
<path fill="none" stroke="#007700" d="M1351.64,-81.98C1476.31,-85.41 1756.4,-84.38 1756.4,-78.9 1756.4,-73.56 1490.89,-72.44 1361.81,-75.55"/>
<polygon fill="#007700" stroke="#007700" points="1361.54,-72.05 1351.64,-75.81 1361.72,-79.05 1361.54,-72.05"/>
<text text-anchor="middle" x="1884.9" y="-75.2" font-family="Times New Roman,serif" font-size="14.00" fill="#007700">(northbound_approach) / &#45;		trains++</text>
</g>
<!-- Barrier State&#45;&gt;Barrier State -->
<g id="edge9" class="edge">
<title>Barrier State&#45;&gt;Barrier State</title>
<path fill="none" stroke="#000000" d="M1351.46,-81.7C1413.02,-83.01 1499.4,-82.07 1499.4,-78.9 1499.4,-75.89 1422.21,-74.89 1361.76,-75.9"/>
<polygon fill="#000000" stroke="#000000" points="1361.39,-72.4 1351.46,-76.09 1361.53,-79.4 1361.39,-72.4"/>
<text text-anchor="middle" x="1627.9" y="-75.2" font-family="Times New Roman,serif" font-size="14.00" fill="#000000">(southbound_approach) / &#45;		trains++</text>
</g>
<!-- Inputs -->
<g id="node5" class="node">
<title>Inputs</title>
<polygon fill="lightgray" stroke="black" points="143,-631.9 0,-631.9 0,-533.9 143,-533.9 143,-631.9"/>
<text text-anchor="start" x="8" y="-616.7" font-family="Times New Roman,serif" font-size="14.00">Inputs:</text>
<text text-anchor="start" x="8" y="-601.7" font-family="Times New Roman,serif" font-size="14.00">northbound_approach</text>
<text text-anchor="start" x="8" y="-586.7" font-family="Times New Roman,serif" font-size="14.00">southbound_approach</text>
<text text-anchor="start" x="8" y="-571.7" font-family="Times New Roman,serif" font-size="14.00">northbound_depart</text>
<text text-anchor="start" x="8" y="-556.7" font-family="Times New Roman,serif" font-size="14.00">southbound_depart</text>
<text text-anchor="middle" x="71.5" y="-541.7" font-family="Times New Roman,serif" font-size="14.00">clock</text>
</g>
<!-- Outputs -->
<g id="node6" class="node">
<title>Outputs</title>
<polygon fill="lightblue" stroke="black" points="118,-408.4 25,-408.4 25,-325.4 118,-325.4 118,-408.4"/>
<text text-anchor="start" x="33" y="-393.2" font-family="Times New Roman,serif" font-size="14.00">Outputs:</text>
<text text-anchor="start" x="33" y="-378.2" font-family="Times New Roman,serif" font-size="14.00">alarm_enable</text>
<text text-anchor="start" x="33" y="-363.2" font-family="Times New Roman,serif" font-size="14.00">alarm_disable</text>
<text text-anchor="start" x="33" y="-348.2" font-family="Times New Roman,serif" font-size="14.00">barrier_lower</text>
<text text-anchor="middle" x="71.5" y="-333.2" font-family="Times New Roman,serif" font-size="14.00">barrier_raise</text>
</g>
<!-- Variables -->
<g id="node7" class="node">
<title>Variables</title>
<polygon fill="lightgreen" stroke="black" points="138,-177.4 5,-177.4 5,-124.4 138,-124.4 138,-177.4"/>
<text text-anchor="start" x="13" y="-162.2" font-family="Times New Roman,serif" font-size="14.00">Variables:</text>
<text text-anchor="start" x="13" y="-147.2" font-family="Times New Roman,serif" font-size="14.00">timer: Timer Counter</text>
<text text-anchor="middle" x="71.5" y="-132.2" font-family="Times New Roman,serif" font-size="14.00">trains: Train Counter</text>
</g>
</g>
</svg>
